<?xml version="1.0" standalone="no"?>
<!DOCTYPE svg PUBLIC "-//W3C//DTD SVG 20010904//EN"
 "http://www.w3.org/TR/2001/REC-SVG-20010904/DTD/svg10.dtd">
<svg version="1.0" xmlns="http://www.w3.org/2000/svg"
 width="256.000000pt" height="256.000000pt" viewBox="0 0 256.000000 256.000000"
 preserveAspectRatio="xMidYMid meet">

<g transform="translate(0.000000,256.000000) scale(0.100000,-0.100000)"
fill="#000000" stroke="none">
<path d="M1182 2319 c-74 -15 -59 -22 19 -9 104 16 183 13 324 -14 17 -3 10 1
-15 10 -56 19 -254 27 -328 13z"/>
<path d="M1600 2270 c8 -5 20 -10 25 -10 6 0 3 5 -5 10 -8 5 -19 10 -25 10 -5
0 -3 -5 5 -10z"/>
<path d="M990 2255 c-14 -8 -20 -14 -15 -14 6 0 21 6 35 14 14 8 21 14 15 14
-5 0 -21 -6 -35 -14z"/>
<path d="M1670 2240 c8 -5 20 -10 25 -10 6 0 3 5 -5 10 -8 5 -19 10 -25 10 -5
0 -3 -5 5 -10z"/>
<path d="M934 2224 c-18 -14 -18 -15 4 -4 12 6 22 13 22 15 0 8 -5 6 -26 -11z"/>
<path d="M869 2183 c-13 -16 -12 -17 4 -4 9 7 17 15 17 17 0 8 -8 3 -21 -13z"/>
<path d="M829 2153 c-13 -16 -12 -17 4 -4 9 7 17 15 17 17 0 8 -8 3 -21 -13z"/>
<path d="M1260 2090 c-55 -7 -135 -29 -128 -36 2 -1 28 4 57 13 53 15 229 15
291 -1 14 -4 9 0 -10 7 -44 18 -139 25 -210 17z"/>
<path d="M1520 2050 c8 -5 20 -10 25 -10 6 0 3 5 -5 10 -8 5 -19 10 -25 10 -5
0 -3 -5 5 -10z"/>
<path d="M1784 2018 l-29 -33 33 29 c30 28 37 36 29 36 -2 0 -16 -15 -33 -32z"/>
<path d="M999 1983 c-13 -16 -12 -17 4 -4 9 7 17 15 17 17 0 8 -8 3 -21 -13z"/>
<path d="M1680 1957 c0 -2 6 -10 14 -16 11 -9 16 -9 22 1 4 7 4 10 -1 6 -4 -4
-14 -3 -22 3 -7 6 -13 9 -13 6z"/>
<path d="M1303 1713 c15 -2 37 -2 50 0 12 2 0 4 -28 4 -27 0 -38 -2 -22 -4z"/>
<path d="M533 1555 c0 -33 2 -45 4 -27 2 18 2 45 0 60 -2 15 -4 0 -4 -33z"/>
<path d="M783 1545 c0 -38 2 -53 4 -32 2 20 2 52 0 70 -2 17 -4 1 -4 -38z"/>
<path d="M1502 1535 c0 -16 2 -22 5 -12 2 9 2 23 0 30 -3 6 -5 -1 -5 -18z"/>
<path d="M1330 1370 l-55 -7 50 -1 c28 -1 57 3 65 8 8 5 11 9 5 8 -5 -1 -35
-4 -65 -8z"/>
<path d="M1750 1098 c24 -27 45 -48 47 -48 8 0 0 9 -44 50 l-48 45 45 -47z"/>
<path d="M990 1106 c0 -2 8 -10 18 -17 15 -13 16 -12 3 4 -13 16 -21 21 -21
13z"/>
<path d="M1594 1064 c-18 -14 -18 -15 4 -4 12 6 22 13 22 15 0 8 -5 6 -26 -11z"/>
<path d="M1110 1030 c8 -5 20 -10 25 -10 6 0 3 5 -5 10 -8 5 -19 10 -25 10 -5
0 -3 -5 5 -10z"/>
<path d="M1475 1018 c-50 -16 -79 -19 -170 -15 -60 3 -121 7 -135 11 -14 3 -5
-1 20 -10 69 -24 210 -21 293 5 37 12 67 24 67 26 0 7 -8 5 -75 -17z"/>
<path d="M1830 1015 c13 -14 26 -25 28 -25 3 0 -5 11 -18 25 -13 14 -26 25
-28 25 -3 0 5 -11 18 -25z"/>
<path d="M755 990 c10 -11 20 -20 23 -20 3 0 -3 9 -13 20 -10 11 -20 20 -23
20 -3 0 3 -9 13 -20z"/>
<path d="M1769 893 c-13 -16 -12 -17 4 -4 16 13 21 21 13 21 -2 0 -10 -8 -17
-17z"/>
<path d="M977 829 c7 -7 15 -10 18 -7 3 3 -2 9 -12 12 -14 6 -15 5 -6 -5z"/>
<path d="M1030 805 c14 -8 32 -14 40 -14 8 0 0 6 -19 14 -42 19 -54 19 -21 0z"/>
<path d="M1610 810 c-8 -5 -10 -10 -5 -10 6 0 17 5 25 10 8 5 11 10 5 10 -5 0
-17 -5 -25 -10z"/>
<path d="M1101 780 c9 -5 36 -12 60 -15 42 -5 41 -4 -11 10 -65 17 -70 17 -49
5z"/>
<path d="M1515 780 c-13 -5 -14 -9 -5 -9 8 0 24 4 35 9 13 5 14 9 5 9 -8 0
-24 -4 -35 -9z"/>
<path d="M1438 765 c-3 -4 -57 -7 -119 -7 -95 -1 -105 -3 -64 -9 28 -5 90 -4
139 2 88 9 124 19 74 19 -13 0 -27 -2 -30 -5z"/>
<path d="M1407 503 c12 -2 24 -12 26 -21 3 -12 5 -10 6 6 1 18 -4 22 -26 21
-23 -1 -24 -2 -6 -6z"/>
<path d="M528 453 c12 -2 30 -2 40 0 9 3 -1 5 -23 4 -22 0 -30 -2 -17 -4z"/>
<path d="M670 365 l0 -95 28 1 c23 2 24 2 5 6 -22 4 -23 9 -23 88 0 84 0 84
28 88 25 4 25 4 -5 6 l-33 1 0 -95z"/>
<path d="M766 451 c-4 -5 4 -7 16 -3 17 4 20 2 15 -11 -4 -10 -2 -17 3 -17 6
0 10 9 10 20 0 21 -33 29 -44 11z"/>
<path d="M868 453 c7 -3 16 -2 19 1 4 3 -2 6 -13 5 -11 0 -14 -3 -6 -6z"/>
<path d="M1033 453 c9 -2 23 -2 30 0 6 3 -1 5 -18 5 -16 0 -22 -2 -12 -5z"/>
<path d="M1110 325 l0 -135 30 0 c29 0 30 2 30 45 0 38 3 43 18 38 13 -5 14
-3 5 7 -18 20 -33 2 -33 -41 0 -32 -3 -39 -20 -39 -19 0 -20 7 -20 124 0 121
1 125 23 129 19 4 18 4 -5 6 l-28 1 0 -135z"/>
<path d="M1213 453 c9 -2 25 -2 35 0 9 3 1 5 -18 5 -19 0 -27 -2 -17 -5z"/>
<path d="M1360 440 c0 -12 7 -20 18 -20 14 0 15 2 2 10 -13 9 -13 11 0 20 13
8 12 10 -2 10 -11 0 -18 -8 -18 -20z"/>
<path d="M1448 453 c6 -2 18 -2 25 0 6 3 1 5 -13 5 -14 0 -19 -2 -12 -5z"/>
<path d="M1586 452 c-2 -4 13 -6 35 -4 21 2 39 6 39 8 0 7 -69 4 -74 -4z"/>
<path d="M1780 456 c0 -2 13 -6 29 -8 17 -2 28 -1 25 4 -5 8 -54 12 -54 4z"/>
<path d="M1923 453 c9 -2 23 -2 30 0 6 3 -1 5 -18 5 -16 0 -22 -2 -12 -5z"/>
<path d="M1270 446 c0 -2 8 -10 18 -17 15 -13 16 -12 3 4 -13 16 -21 21 -21
13z"/>
<path d="M592 424 c-7 -8 -8 -14 -3 -14 10 0 25 19 20 25 -2 1 -10 -3 -17 -11z"/>
<path d="M533 423 c9 -2 23 -2 30 0 6 3 -1 5 -18 5 -16 0 -22 -2 -12 -5z"/>
<path d="M1203 423 c9 -2 23 -2 30 0 6 3 -1 5 -18 5 -16 0 -22 -2 -12 -5z"/>
<path d="M1448 423 c6 -2 18 -2 25 0 6 3 1 5 -13 5 -14 0 -19 -2 -12 -5z"/>
<path d="M1589 413 c-13 -16 -12 -17 3 -4 10 7 31 11 47 9 17 -2 28 -1 25 4
-9 15 -61 8 -75 -9z"/>
<path d="M1870 410 c-9 -6 -10 -10 -3 -10 6 0 15 5 18 10 8 12 4 12 -15 0z"/>
<path d="M1433 370 c0 -25 2 -35 4 -22 2 12 2 32 0 45 -2 12 -4 2 -4 -23z"/>
<path d="M1608 373 c12 -2 32 -2 45 0 12 2 2 4 -23 4 -25 0 -35 -2 -22 -4z"/>
<path d="M1613 353 c20 -2 54 -2 75 0 20 2 3 4 -38 4 -41 0 -58 -2 -37 -4z"/>
<path d="M946 328 c3 -5 10 -6 15 -3 13 9 11 12 -6 12 -8 0 -12 -4 -9 -9z"/>
<path d="M1861 327 c2 -1 15 -11 29 -22 l25 -20 -19 23 c-11 12 -24 22 -29 22
-6 0 -8 -1 -6 -3z"/>
<path d="M545 309 c-38 -6 -38 -6 13 -6 28 0 52 1 52 3 0 7 -30 9 -65 3z"/>
<path d="M479 291 c13 -12 28 -21 34 -21 12 0 11 0 -28 24 l-30 17 24 -20z"/>
<path d="M1458 303 c6 -2 18 -2 25 0 6 3 1 5 -13 5 -14 0 -19 -2 -12 -5z"/>
<path d="M1572 284 c10 -10 20 -16 22 -13 3 3 -5 11 -17 18 -21 13 -21 12 -5
-5z"/>
<path d="M1623 293 c9 -2 23 -2 30 0 6 3 -1 5 -18 5 -16 0 -22 -2 -12 -5z"/>
<path d="M580 280 c-9 -6 -10 -10 -3 -10 6 0 15 5 18 10 8 12 4 12 -15 0z"/>
<path d="M1407 279 c7 -7 15 -10 18 -7 3 3 -2 9 -12 12 -14 6 -15 5 -6 -5z"/>
<path d="M1793 273 c9 -2 23 -2 30 0 6 3 -1 5 -18 5 -16 0 -22 -2 -12 -5z"/>
<path d="M1928 273 c7 -3 16 -2 19 1 4 3 -2 6 -13 5 -11 0 -14 -3 -6 -6z"/>
<path d="M538 263 c7 -3 16 -2 19 1 4 3 -2 6 -13 5 -11 0 -14 -3 -6 -6z"/>
<path d="M1218 263 c7 -3 16 -2 19 1 4 3 -2 6 -13 5 -11 0 -14 -3 -6 -6z"/>
<path d="M1448 263 c7 -3 16 -2 19 1 4 3 -2 6 -13 5 -11 0 -14 -3 -6 -6z"/>
<path d="M1618 263 c6 -2 18 -2 25 0 6 3 1 5 -13 5 -14 0 -19 -2 -12 -5z"/>
<path d="M908 193 c6 -2 18 -2 25 0 6 3 1 5 -13 5 -14 0 -19 -2 -12 -5z"/>
</g>
</svg>
